<svg id="Capa_1" enable-background="new 0 0 510 510" height="512" viewBox="0 0 510 510" width="512" xmlns="http://www.w3.org/2000/svg"><g><path d="m169.269 150-110.539 98.902 69.515 76.466 36.755-28.588v153.22h180v-153.22l36.755 28.588 69.515-76.466-110.539-98.902zm208.975 134.632-38.098-29.632h-25.146v165h-120v-165h-25.146l-38.098 29.632-30.486-33.534 79.46-71.098h148.54l79.461 71.098z"/><path d="m374.394 365.606 31.82 31.821-31.82 31.819 21.212 21.213 53.034-53.032-53.034-53.033z"/><path d="m114.394 344.394-53.034 53.033 53.034 53.032 21.212-21.213-31.82-31.819 31.82-31.821z"/><path d="m0 0v452.308c0 31.811 25.881 57.692 57.692 57.692h394.615c31.812 0 57.693-25.881 57.693-57.692v-452.308zm480 90h-60v-60h60zm-420-60v30h30v-30h30v30h30v-30h30v30h30v-30h180v60h-360v-60zm392.308 450h-394.616c-15.269 0-27.692-12.423-27.692-27.692v-332.308h450v332.308c0 15.269-12.423 27.692-27.692 27.692z"/></g></svg>